<svg xmlns="http://www.w3.org/2000/svg" fill="none" viewBox="0 0 146 39">
  <g clip-path="url(#a)">
    <path fill="#2A2825" d="M35.03 18.2c0-1.8-.44-3.09-1.31-3.87-.88-.78-2.31-1.16-4.33-1.16-2.01 0-3.88.48-5.64 1.44l-.02.91c0 1.06.16 1.92.48 2.59h2.77c.18-.44.3-1.07.33-1.86.38-.11.86-.18 1.44-.18 1.56 0 2.33.75 2.33 2.24v1.39h-3.07c-1.65 0-2.9.37-3.73 1.1a3.84 3.84 0 0 0-1.25 3.03c0 1.27.44 2.3 1.34 3.03A4.8 4.8 0 0 0 27.6 28c2.12 0 3.59-.6 4.4-1.8.13.7.29 1.3.48 1.8 1.78 0 3.15-.24 4.1-.69v-2.49a6.3 6.3 0 0 0-1.54-.49V18.2Zm-3.95 5.98c-.56.58-1.33.87-2.28.87-.56 0-1-.16-1.27-.47-.3-.3-.45-.7-.45-1.18 0-1.05.67-1.57 2.03-1.57h1.97v2.35Zm15.35-11.01a6.8 6.8 0 0 0-4.03 1.35v-1.4a28.9 28.9 0 0 0-2.05-.06c-.83 0-1.76.11-2.8.34l-.28 2.22c.38.42.89.75 1.55.97v13.72c-.8.3-1.3.63-1.55.97l.29 2.22h7.06l.28-2.22c-.32-.4-1.03-.75-2.14-1.06v-2.47c.7.15 1.43.24 2.2.24 1.8 0 3.34-.58 4.63-1.73a5.97 5.97 0 0 0 1.6-2.4c.4-1.04.6-2.24.6-3.59 0-2.54-.42-4.36-1.27-5.44-.85-1.11-2.21-1.66-4.09-1.66Zm.48 10.6a2.53 2.53 0 0 1-2.23 1.28 7.7 7.7 0 0 1-1.92-.24V17.2a4.43 4.43 0 0 1 2.88-.86c.79 0 1.33.27 1.64.83.3.57.45 1.6.45 3.08a6.7 6.7 0 0 1-.82 3.53Zm15.17-10.6a6.8 6.8 0 0 0-4.02 1.35v-1.4a28.9 28.9 0 0 0-2.06-.06c-.83 0-1.76.11-2.79.34l-.28 2.22c.37.42.88.75 1.54.97v13.72c-.79.3-1.3.63-1.54.97l.28 2.22h7.06l.28-2.22c-.32-.4-1.03-.75-2.13-1.06v-2.47c.7.15 1.42.24 2.2.24 1.79 0 3.33-.58 4.62-1.73a5.97 5.97 0 0 0 1.61-2.4c.39-1.04.6-2.24.6-3.59 0-2.54-.42-4.36-1.27-5.44-.86-1.11-2.22-1.66-4.1-1.66Zm.49 10.6a2.53 2.53 0 0 1-2.23 1.28 7.7 7.7 0 0 1-1.92-.24V17.2a4.43 4.43 0 0 1 2.87-.86c.8 0 1.33.27 1.64.83.3.57.46 1.6.46 3.08 0 1.5-.29 2.68-.82 3.53Zm12.93 1.06c-.65 0-1.05-.14-1.21-.41a2.61 2.61 0 0 1-.26-1.34V15.8h4.03v-2.4h-4.03V9.77h-2.05c-.85.56-1.38 1.61-1.61 3.19a4.6 4.6 0 0 0-1.85 1.09l.3 1.75h1.27v8.06c0 1.26.27 2.23.8 2.89.54.65 1.56.98 3.08.98 1.51 0 2.99-.37 4.43-1.12l-.85-2.25a5.5 5.5 0 0 1-2.05.46ZM95.08 13.4l-.26 2.2c.28.39.84.73 1.69 1.04l-.18.81-1.4 6.51h-.4l-.7-3.18-1.89-7.32H88.8l-1.92 7.37a65.45 65.45 0 0 0-.74 3.13h-.39l-1.64-7.32c.8-.28 1.39-.62 1.72-1.04l-.28-2.2h-6.6l-.27 2.22c.29.4.85.75 1.66 1.04l3.54 11.27h4l1.33-4.57c.38-1.24.66-2.61.85-4.1h.39l.08.68c.17 1.38.4 2.53.7 3.45l1.43 4.53h3.67l3.52-11.22a3.54 3.54 0 0 0 1.77-1.1l-.27-2.2h-6.26Zm19.39 6.02c0-2.35-.47-3.98-1.4-4.9-.92-.9-2.26-1.36-4-1.36-1.75 0-3.28.53-4.6 1.6a5.72 5.72 0 0 0-1.61 2.36 10.3 10.3 0 0 0-.6 3.66c0 2.34.57 4.11 1.71 5.33 1.14 1.23 2.84 1.84 5.1 1.84a8.1 8.1 0 0 0 2.96-.51c.87-.33 1.42-.6 1.64-.8l.5-.51-.85-2.3-.4.23a7.27 7.27 0 0 1-3.09.7c-1.16 0-2-.25-2.54-.75s-.85-1.36-.91-2.56h6.1c1.32.04 2-.65 2-2.03Zm-3.64-.48-4.44.18c.14-1.1.39-1.86.8-2.32.38-.47.96-.69 1.7-.69s1.26.22 1.55.64c.3.43.46.84.46 1.22-.01.37-.03.7-.07.97Zm16.93-.74c0-1.8-.44-3.09-1.31-3.87-.88-.78-2.31-1.16-4.33-1.16-2 0-3.88.48-5.63 1.44l-.03.91c0 1.06.16 1.92.48 2.59h2.77c.19-.44.3-1.07.33-1.86.38-.11.86-.18 1.44-.18 1.56 0 2.34.75 2.34 2.24v1.39h-3.08c-1.65 0-2.9.37-3.73 1.1a3.84 3.84 0 0 0-1.25 3.03c0 1.27.44 2.3 1.34 3.03a4.8 4.8 0 0 0 3.23 1.13c2.12 0 3.58-.6 4.39-1.8.13.7.3 1.3.48 1.8 1.78 0 3.15-.24 4.1-.69v-2.49a6.3 6.3 0 0 0-1.54-.49v-6.13Zm-3.94 5.98c-.57.58-1.33.87-2.29.87-.56 0-.99-.16-1.27-.47-.3-.3-.43-.7-.43-1.18 0-1.05.67-1.57 2.03-1.57h1.96v2.35Zm19.22.12-3.18-4.28 2.7-3.16c1.14-.3 1.92-.72 2.34-1.25l-.27-2.2h-6.2l-.27 2.2c.13.21.36.42.67.61l-3.1 4.1 4.98 7.43h4.5l.29-2.21c-.47-.56-1.29-.97-2.46-1.23Z"/>
    <path fill="#2A2825" d="M135.47 24.57V7.08c-.62-.05-1.38-.08-2.28-.08-.9 0-1.88.12-2.93.37l-.28 2.2c.38.43.89.75 1.54.97v14.01c-.76.29-1.28.62-1.54.97l.28 2.22h6.47l.28-2.22c-.3-.35-.8-.67-1.54-.95Z"/>
    <path fill="#fff" d="M6.81 17.99a.38.38 0 0 0-.28-.14c-.1 0-.22.05-.28.14L.5 24.94v2.13l6.01-7 4.22 5.03a.41.41 0 0 0 .66-.03l6.4-8.88v-2.53L11.03 23 6.8 18Z"/>
    <path fill="#C82C46" d="M11.39 25.07a.44.44 0 0 1-.32.18.43.43 0 0 1-.34-.15l-4.22-5.02L.5 27.07v.15c0 1.03.8 1.85 1.81 1.85h13.67c1 0 1.81-.82 1.81-1.85V16.19l-6.4 8.88Z"/>
    <path fill="#C82C46" d="M17.8 13.18a1.83 1.83 0 0 0-1.82-1.73H2.31c-1 0-1.81.82-1.81 1.84v11.65L6.25 18a.38.38 0 0 1 .28-.14c.1 0 .21.06.28.14l4.22 5.02 6.76-9.33v-.38c.02-.06 0-.1 0-.13Z"/>
  </g>
  <defs>
    <clipPath id="a">
      <path fill="#fff" d="M.5 7h145v26.5H.5z"/>
    </clipPath>
  </defs>
</svg>
